# Blender v3.0.1 OBJ File: 'temple.blend'
# www.blender.org
mtllib pillar.mtl
o Pillar_Cube.003
v 0.232725 0.016351 3.195687
v 0.769794 4.635563 2.658617
v 0.232725 0.016351 -1.423525
v 0.769794 4.635563 -0.886456
v 4.851937 0.016351 3.195687
v 4.314867 4.635563 2.658617
v 4.851937 0.016351 -1.423525
v 4.314867 4.635563 -0.886456
v 0.232725 4.635563 3.195687
v 0.232725 4.635563 -1.423525
v 4.851937 4.635563 -1.423525
v 4.851937 4.635563 3.195687
v 0.769794 4.981242 2.658617
v 0.769794 4.981242 -0.886456
v 4.314867 4.981242 -0.886456
v 4.314867 4.981242 2.658617
v 2.473681 4.927709 -0.670398
v 2.180327 4.927709 -0.641505
v 1.898247 4.927709 -0.555937
v 1.638281 4.927709 -0.416982
v 1.410419 4.927709 -0.229980
v 1.223417 4.927709 -0.002118
v 1.084462 4.927709 0.257848
v 0.998894 4.927709 0.539928
v 0.970001 4.927709 0.833282
v 0.998894 4.927709 1.126635
v 1.084462 4.927709 1.408715
v 1.223417 4.927709 1.668681
v 1.410419 4.927709 1.896544
v 1.638281 4.927709 2.083545
v 1.898247 4.927709 2.222500
v 2.180327 4.927709 2.308068
v 2.473681 4.927709 2.336961
v 2.767034 4.927709 2.308068
v 3.049114 4.927709 2.222500
v 3.309080 4.927709 2.083545
v 3.536942 4.927709 1.896544
v 3.723944 4.927709 1.668681
v 3.862899 4.927709 1.408715
v 3.948467 4.927709 1.126635
v 3.977360 4.927709 0.833281
v 3.948467 4.927709 0.539928
v 3.862899 4.927709 0.257848
v 3.723945 4.927709 -0.002118
v 3.536943 4.927709 -0.229980
v 3.309080 4.927709 -0.416982
v 3.049114 4.927709 -0.555937
v 2.767034 4.927709 -0.641505
v 2.180327 7.877746 -0.641505
v 2.473680 7.877746 -0.670398
v 1.898247 7.877746 -0.555937
v 1.638281 7.877746 -0.416982
v 1.410418 7.877746 -0.229980
v 1.223417 7.877746 -0.002118
v 1.084462 7.877746 0.257848
v 0.998894 7.877746 0.539928
v 0.970001 7.877746 0.833282
v 0.998894 7.877746 1.126635
v 1.084462 7.877746 1.408715
v 1.223417 7.877746 1.668681
v 1.410418 7.877746 1.896544
v 1.638281 7.877746 2.083545
v 1.898247 7.877746 2.222500
v 2.180327 7.877746 2.308068
v 2.473680 7.877746 2.336961
v 2.767034 7.877746 2.308068
v 3.049114 7.877746 2.222500
v 3.309080 7.877746 2.083545
v 3.536942 7.877746 1.896544
v 3.723944 7.877746 1.668681
v 3.862899 7.877746 1.408715
v 3.948467 7.877746 1.126635
v 3.977360 7.877746 0.833281
v 3.948467 7.877746 0.539928
v 3.862899 7.877746 0.257848
v 3.723944 7.877746 -0.002118
v 3.536942 7.877746 -0.229980
v 3.309080 7.877746 -0.416982
v 3.049114 7.877746 -0.555937
v 2.767034 7.877746 -0.641505
v 2.180331 25.859737 -0.641505
v 2.473684 25.859737 -0.670398
v 1.898251 25.859737 -0.555937
v 1.638285 25.859737 -0.416982
v 1.410422 25.859737 -0.229980
v 1.223421 25.859737 -0.002118
v 1.084466 25.859737 0.257848
v 0.998898 25.859737 0.539928
v 0.970005 25.859737 0.833282
v 0.998898 25.859737 1.126635
v 1.084466 25.859737 1.408715
v 1.223421 25.859737 1.668681
v 1.410422 25.859737 1.896544
v 1.638285 25.859737 2.083545
v 1.898251 25.859737 2.222500
v 2.180331 25.859737 2.308068
v 2.473685 25.859737 2.336961
v 2.767038 25.859737 2.308068
v 3.049118 25.859737 2.222500
v 3.309084 25.859737 2.083545
v 3.536946 25.859737 1.896544
v 3.723948 25.859737 1.668681
v 3.862903 25.859737 1.408715
v 3.948471 25.859737 1.126635
v 3.977364 25.859737 0.833281
v 3.948471 25.859737 0.539928
v 3.862903 25.859737 0.257848
v 3.723948 25.859737 -0.002118
v 3.536947 25.859737 -0.229980
v 3.309084 25.859737 -0.416982
v 3.049118 25.859737 -0.555937
v 2.767038 25.859737 -0.641505
v 4.851937 30.718016 -1.423525
v 4.545825 26.098803 -1.117414
v 4.851937 30.718016 3.195687
v 4.545825 26.098803 2.889575
v 0.232725 30.718016 -1.423525
v 0.538836 26.098803 -1.117414
v 0.232725 30.718016 3.195687
v 0.538836 26.098803 2.889575
v 0.232725 26.098803 3.195687
v 4.851937 26.098803 3.195687
v 4.851937 26.098803 -1.423525
v 0.232725 26.098803 -1.423525
v 0.538836 25.660278 2.889575
v 4.545825 25.660278 2.889575
v 4.545825 25.660278 -1.117414
v 0.538836 25.660278 -1.117414
vt 0.510002 0.705970
vt 0.509735 0.705970
vt 0.509735 0.705697
vt 0.510002 0.705697
vt 0.509735 0.705420
vt 0.510002 0.705420
vt 0.509735 0.705143
vt 0.510002 0.705143
vt 0.509735 0.704871
vt 0.510002 0.704871
vt 0.510279 0.705420
vt 0.510279 0.705143
vt 0.509491 0.705176
vt 0.509697 0.705176
vt 0.509697 0.705176
vt 0.509491 0.705176
vt 0.509491 0.705387
vt 0.509458 0.705420
vt 0.509458 0.705143
vt 0.509697 0.705387
vt 0.989213 0.987318
vt 0.006531 0.987318
vt 0.006531 0.004645
vt 0.989213 0.004645
vt 0.509491 0.705387
vt 0.509697 0.705387
vt 0.510415 0.705970
vt 0.510415 0.705970
vt 0.510415 0.705970
vt 0.510415 0.705970
vt 0.510415 0.705970
vt 0.510415 0.705970
vt 0.510415 0.705970
vt 0.510415 0.705970
vt 0.510415 0.705970
vt 0.510415 0.705970
vt 0.510415 0.705970
vt 0.510415 0.705970
vt 0.510415 0.705970
vt 0.510415 0.705970
vt 0.510415 0.705970
vt 0.510415 0.705970
vt 0.510415 0.705970
vt 0.510415 0.705970
vt 0.510415 0.705970
vt 0.510415 0.705970
vt 0.510415 0.705970
vt 0.510415 0.705970
vt 0.510415 0.705970
vt 0.510415 0.705970
vt 0.510415 0.705970
vt 0.510415 0.705970
vt 0.510415 0.705970
vt 0.510415 0.705970
vt 0.510415 0.705970
vt 0.510415 0.705970
vt 0.510415 0.705970
vt 0.510415 0.705970
vt 0.510415 0.705970
vt 0.510415 0.705970
vt 0.510415 0.705970
vt 0.510415 0.705970
vt 0.510415 0.705970
vt 0.510415 0.705970
vt 0.510415 0.705970
vt 0.510415 0.705970
vt 0.510415 0.705970
vt 0.510415 0.705970
vt 0.510415 0.705970
vt 0.510415 0.705970
vt 0.510415 0.705970
vt 0.510415 0.705970
vt 0.510415 0.705970
vt 0.510415 0.705970
vt 0.510415 0.705970
vt 0.510415 0.705970
vt 0.510415 0.705970
vt 0.510415 0.705970
vt 0.510415 0.705970
vt 0.510415 0.705970
vt 0.510415 0.705970
vt 0.510415 0.705970
vt 0.510415 0.705970
vt 0.510415 0.705970
vt 0.510415 0.705970
vt 0.510415 0.705970
vt 0.510415 0.705970
vt 0.510415 0.705970
vt 0.510415 0.705970
vt 0.510415 0.705970
vt 0.510415 0.705970
vt 0.510415 0.705970
vt 0.510415 0.705970
vt 0.510415 0.705970
vt 0.510415 0.705970
vt 0.510415 0.705970
vt 0.510415 0.705970
vt 0.510415 0.705970
vt 0.510415 0.705970
vt 0.510415 0.705970
vt 0.510415 0.705970
vt 0.510415 0.705970
vt 0.510415 0.705970
vt 0.510415 0.705970
vt 0.510415 0.705970
vt 0.510415 0.705970
vt 0.510415 0.705970
vt 0.510415 0.705970
vt 0.510415 0.705970
vt 0.510415 0.705970
vt 0.510415 0.705970
vt 0.510415 0.705970
vt 0.510415 0.705970
vt 0.510415 0.705970
vt 0.510415 0.705970
vt 0.510415 0.705970
vt 0.510415 0.705970
vt 0.510415 0.705970
vt 0.510415 0.705970
vt 0.510415 0.705970
vt 0.510415 0.705970
vt 0.510415 0.705970
vt 0.510002 0.705970
vt 0.509735 0.705970
vt 0.509735 0.705697
vt 0.510002 0.705697
vt 0.509988 0.705674
vt 0.509749 0.705674
vt 0.509749 0.705674
vt 0.509988 0.705674
vt 0.510002 0.705420
vt 0.509735 0.705420
vt 0.509735 0.705143
vt 0.510002 0.705143
vt 0.510002 0.705143
vt 0.509735 0.705143
vt 0.509735 0.704871
vt 0.510002 0.704871
vt 0.510279 0.705420
vt 0.510002 0.705420
vt 0.510002 0.705143
vt 0.510279 0.705143
vt 0.509735 0.705420
vt 0.509458 0.705420
vt 0.509458 0.705143
vt 0.509735 0.705143
vt 0.509988 0.705439
vt 0.509749 0.705439
vt 0.509735 0.705420
vt 0.510002 0.705420
vt 0.509735 0.705697
vt 0.510002 0.705697
vt 0.509749 0.705439
vt 0.509988 0.705439
vn -1.0000 0.0000 0.0000
vn 0.0000 0.0000 -1.0000
vn 1.0000 0.0000 0.0000
vn 0.0000 0.0000 1.0000
vn 0.0000 -1.0000 0.0000
vn 0.0000 1.0000 0.0000
vn -0.6344 0.0000 0.7730
vn -0.7730 -0.0000 -0.6344
vn 0.0980 0.0000 -0.9952
vn 0.4714 0.0000 0.8819
vn -0.8819 -0.0000 -0.4714
vn 0.6344 0.0000 0.7730
vn -0.9569 -0.0000 -0.2903
vn 0.7730 0.0000 0.6344
vn -0.9952 -0.0000 -0.0980
vn 0.8819 0.0000 0.4714
vn -0.9952 -0.0000 0.0980
vn 0.9569 0.0000 0.2903
vn -0.9569 -0.0000 0.2903
vn 0.9952 0.0000 0.0980
vn -0.8819 -0.0000 0.4714
vn 0.9952 0.0000 -0.0980
vn -0.7730 -0.0000 0.6344
vn 0.9569 0.0000 -0.2903
vn 0.8819 0.0000 -0.4714
vn -0.4714 -0.0000 0.8819
vn -0.0980 -0.0000 -0.9952
vn 0.7730 0.0000 -0.6344
vn -0.2903 -0.0000 0.9569
vn -0.2903 -0.0000 -0.9569
vn 0.6344 0.0000 -0.7730
vn -0.0980 -0.0000 0.9952
vn -0.4714 -0.0000 -0.8819
vn 0.4714 0.0000 -0.8819
vn 0.0980 0.0000 0.9952
vn -0.6344 -0.0000 -0.7730
vn 0.2903 0.0000 -0.9569
vn 0.2903 0.0000 0.9569
usemtl Material.001
s off
f 1/1/1 9/2/1 10/3/1 3/4/1
f 3/4/2 10/3/2 11/5/2 7/6/2
f 7/6/3 11/5/3 12/7/3 5/8/3
f 5/8/4 12/7/4 9/9/4 1/10/4
f 3/11/5 7/6/5 5/8/5 1/12/5
f 2/13/4 6/14/4 16/15/4 13/16/4
f 2/13/6 4/17/6 10/18/6 9/19/6
f 4/17/6 8/20/6 11/5/6 10/18/6
f 8/20/6 6/14/6 12/7/6 11/5/6
f 6/14/6 2/13/6 9/19/6 12/7/6
f 15/21/6 14/22/6 13/23/6 16/24/6
f 8/20/2 4/17/2 14/25/2 15/26/2
f 6/14/3 8/20/3 15/26/3 16/15/3
f 4/17/1 2/13/1 13/16/1 14/25/1
f 18/27/5 17/28/5 48/29/5 47/30/5 46/31/5 45/32/5 44/33/5 43/34/5 42/35/5 41/36/5 40/37/5 39/38/5 38/39/5 37/40/5 36/41/5 35/42/5 34/43/5 33/44/5 32/45/5 31/46/5 30/47/5 29/48/5 28/49/5 27/50/5 26/51/5 25/52/5 24/53/5 23/54/5 22/55/5 21/56/5 20/57/5 19/58/5
f 61/59/7 62/60/7 94/61/7 93/62/7
f 21/56/8 22/55/8 54/63/8 53/64/8
f 48/29/9 17/28/9 50/65/9 80/66/9
f 35/42/10 36/41/10 68/67/10 67/68/10
f 22/55/11 23/54/11 55/69/11 54/63/11
f 36/41/12 37/40/12 69/70/12 68/67/12
f 23/54/13 24/53/13 56/71/13 55/69/13
f 37/40/14 38/39/14 70/72/14 69/70/14
f 24/53/15 25/52/15 57/73/15 56/71/15
f 38/39/16 39/38/16 71/74/16 70/72/16
f 25/52/17 26/51/17 58/75/17 57/73/17
f 39/38/18 40/37/18 72/76/18 71/74/18
f 26/51/19 27/50/19 59/77/19 58/75/19
f 40/37/20 41/36/20 73/78/20 72/76/20
f 27/50/21 28/49/21 60/79/21 59/77/21
f 41/36/22 42/35/22 74/80/22 73/78/22
f 28/49/23 29/48/23 61/59/23 60/79/23
f 42/35/24 43/34/24 75/81/24 74/80/24
f 29/48/7 30/47/7 62/60/7 61/59/7
f 43/34/25 44/33/25 76/82/25 75/81/25
f 30/47/26 31/46/26 63/83/26 62/60/26
f 17/28/27 18/27/27 49/84/27 50/65/27
f 44/33/28 45/32/28 77/85/28 76/82/28
f 31/46/29 32/45/29 64/86/29 63/83/29
f 18/27/30 19/58/30 51/87/30 49/84/30
f 45/32/31 46/31/31 78/88/31 77/85/31
f 32/45/32 33/44/32 65/89/32 64/86/32
f 19/58/33 20/57/33 52/90/33 51/87/33
f 46/31/34 47/30/34 79/91/34 78/88/34
f 33/44/35 34/43/35 66/92/35 65/89/35
f 20/57/36 21/56/36 53/64/36 52/90/36
f 47/30/37 48/29/37 80/66/37 79/91/37
f 34/43/38 35/42/38 67/68/38 66/92/38
f 81/93/6 83/94/6 84/95/6 85/96/6 86/97/6 87/98/6 88/99/6 89/100/6 90/101/6 91/102/6 92/103/6 93/62/6 94/61/6 95/104/6 96/105/6 97/106/6 98/107/6 99/108/6 100/109/6 101/110/6 102/111/6 103/112/6 104/113/6 105/114/6 106/115/6 107/116/6 108/117/6 109/118/6 110/119/6 111/120/6 112/121/6 82/122/6
f 75/81/25 76/82/25 108/117/25 107/116/25
f 62/60/26 63/83/26 95/104/26 94/61/26
f 50/65/27 49/84/27 81/93/27 82/122/27
f 76/82/28 77/85/28 109/118/28 108/117/28
f 63/83/29 64/86/29 96/105/29 95/104/29
f 49/84/30 51/87/30 83/94/30 81/93/30
f 77/85/31 78/88/31 110/119/31 109/118/31
f 64/86/32 65/89/32 97/106/32 96/105/32
f 51/87/33 52/90/33 84/95/33 83/94/33
f 78/88/34 79/91/34 111/120/34 110/119/34
f 65/89/35 66/92/35 98/107/35 97/106/35
f 52/90/36 53/64/36 85/96/36 84/95/36
f 79/91/37 80/66/37 112/121/37 111/120/37
f 66/92/38 67/68/38 99/108/38 98/107/38
f 53/64/8 54/63/8 86/97/8 85/96/8
f 80/66/9 50/65/9 82/122/9 112/121/9
f 67/68/10 68/67/10 100/109/10 99/108/10
f 54/63/11 55/69/11 87/98/11 86/97/11
f 68/67/12 69/70/12 101/110/12 100/109/12
f 55/69/13 56/71/13 88/99/13 87/98/13
f 69/70/14 70/72/14 102/111/14 101/110/14
f 56/71/15 57/73/15 89/100/15 88/99/15
f 70/72/16 71/74/16 103/112/16 102/111/16
f 57/73/17 58/75/17 90/101/17 89/100/17
f 71/74/18 72/76/18 104/113/18 103/112/18
f 58/75/19 59/77/19 91/102/19 90/101/19
f 72/76/20 73/78/20 105/114/20 104/113/20
f 59/77/21 60/79/21 92/103/21 91/102/21
f 73/78/22 74/80/22 106/115/22 105/114/22
f 60/79/23 61/59/23 93/62/23 92/103/23
f 74/80/24 75/81/24 107/116/24 106/115/24
f 113/123/6 117/124/6 119/125/6 115/126/6
f 118/127/2 114/128/2 127/129/2 128/130/2
f 122/131/4 115/132/4 119/133/4 121/134/4
f 123/135/3 113/136/3 115/137/3 122/138/3
f 124/139/2 117/140/2 113/141/2 123/142/2
f 121/143/1 119/144/1 117/145/1 124/146/1
f 120/147/5 116/148/5 122/149/5 121/150/5
f 116/148/5 114/128/5 123/151/5 122/149/5
f 114/128/5 118/127/5 124/152/5 123/151/5
f 118/127/5 120/147/5 121/150/5 124/152/5
f 128/130/5 127/129/5 126/153/5 125/154/5
f 116/148/4 120/147/4 125/154/4 126/153/4
f 120/147/1 118/127/1 128/130/1 125/154/1
f 114/128/3 116/148/3 126/153/3 127/129/3
