# Blender v3.0.1 OBJ File: 'vase.blend'
# www.blender.org
mtllib vase.mtl
o Cylinder
v 1.161510 -2.048422 -1.687284
v -2.147570 2.048422 -3.119700
v 1.718791 -2.048422 -1.114357
v -0.790238 2.048422 -3.704066
v 2.014401 -2.048422 -0.371779
v 0.687399 2.048422 -3.724522
v 2.003338 -2.048422 0.427399
v 2.060387 2.048422 -3.177953
v 1.687284 -2.048422 1.161510
v 3.119700 2.048422 -2.147570
v 1.114357 -2.048422 1.718791
v 3.704067 2.048422 -0.790239
v 0.371779 -2.048422 2.014401
v 3.724522 2.048422 0.687399
v -0.427399 -2.048422 2.003338
v 3.177954 2.048422 2.060387
v -1.161510 -2.048422 1.687284
v 2.147570 2.048422 3.119700
v -1.718791 -2.048422 1.114357
v 0.790238 2.048422 3.704066
v -2.014401 -2.048422 0.371779
v -0.687399 2.048422 3.724522
v -2.003338 -2.048422 -0.427399
v -2.060387 2.048422 3.177954
v -1.687284 -2.048422 -1.161510
v -3.119700 2.048422 2.147570
v -1.114356 -2.048422 -1.718791
v -3.704066 2.048422 0.790238
v -0.371779 -2.048422 -2.014401
v -3.724522 2.048422 -0.687399
v 0.427399 -2.048422 -2.003338
v -3.177954 2.048422 -2.060387
v -2.921270 4.327238 -2.410553
v -3.621380 4.327238 -1.109139
v -1.776423 4.327238 -3.344982
v -0.361131 4.327238 -3.770168
v 1.109139 4.327238 -3.621380
v 2.410553 4.327238 -2.921270
v 3.344982 4.327238 -1.776423
v 3.770168 4.327238 -0.361131
v 3.621380 4.327238 1.109140
v 2.921270 4.327238 2.410553
v 1.776423 4.327238 3.344982
v 0.361132 4.327238 3.770168
v -1.109139 4.327238 3.621380
v -2.410554 4.327238 2.921269
v -3.344982 4.327238 1.776423
v -3.770169 4.327238 0.361131
v -2.921270 4.327238 -2.410553
v -3.621380 4.327238 -1.109139
v -1.776423 4.327238 -3.344982
v -0.361131 4.327238 -3.770168
v 1.109139 4.327238 -3.621380
v 2.410553 4.327238 -2.921270
v 3.344982 4.327238 -1.776423
v 3.770168 4.327238 -0.361131
v 3.621380 4.327238 1.109140
v 2.921270 4.327238 2.410553
v 1.776423 4.327238 3.344982
v 0.361132 4.327238 3.770168
v -1.109139 4.327238 3.621380
v -2.410554 4.327238 2.921269
v -3.344982 4.327238 1.776423
v -3.770169 4.327238 0.361131
v -0.897098 8.922847 0.700097
v -0.560895 8.922847 0.990110
v -1.096726 8.922847 0.303501
v -1.129388 8.922847 -0.139301
v -0.990111 8.922847 -0.560895
v -0.700098 8.922847 -0.897098
v -0.303501 8.922847 -1.096726
v 0.139300 8.922847 -1.129388
v 0.560895 8.922847 -0.990110
v 0.897098 8.922847 -0.700097
v 1.096726 8.922847 -0.303501
v 1.129388 8.922847 0.139300
v 0.990110 8.922847 0.560895
v 0.700097 8.922847 0.897098
v 0.303501 8.922847 1.096726
v -0.139301 8.922847 1.129388
v -0.263603 11.457705 1.612309
v 0.373467 11.457705 1.590456
v -0.860541 11.457705 1.388702
v -1.326470 11.457705 0.953679
v -1.590456 11.457705 0.373466
v -1.612309 11.457705 -0.263603
v -1.388702 11.457705 -0.860542
v -0.953678 11.457705 -1.326470
v -0.373465 11.457705 -1.590456
v 0.263604 11.457705 -1.612309
v 0.860542 11.457705 -1.388703
v 1.326471 11.457705 -0.953679
v 1.590456 11.457705 -0.373466
v 1.612309 11.457705 0.263604
v 1.388703 11.457705 0.860542
v 0.953680 11.457705 1.326471
v -0.277528 11.593576 2.262201
v 0.609305 11.593576 2.196207
v -1.122109 11.593576 1.983796
v -1.795860 11.593576 1.403375
v -2.196207 11.593576 0.609304
v -2.262201 11.593576 -0.277528
v -1.983795 11.593576 -1.122110
v -1.403375 11.593576 -1.795860
v -0.609303 11.593576 -2.196207
v 0.277529 11.593576 -2.262201
v 1.122110 11.593576 -1.983796
v 1.795861 11.593576 -1.403376
v 2.196207 11.593576 -0.609304
v 2.262201 11.593576 0.277529
v 1.983796 11.593576 1.122110
v 1.403376 11.593576 1.795860
v -0.513013 10.923049 1.551078
v 0.119610 10.923049 1.629331
v -1.067534 10.923049 1.236688
v -1.459533 10.923049 0.734022
v -1.629331 10.923049 0.119609
v -1.551078 10.923049 -0.513014
v -1.236687 10.923049 -1.067535
v -0.734022 10.923049 -1.459534
v -0.119608 10.923049 -1.629332
v 0.513014 10.923049 -1.551078
v 1.067535 10.923049 -1.236688
v 1.459534 10.923049 -0.734023
v 1.629332 10.923049 -0.119609
v 1.551079 10.923049 0.513014
v 1.236689 10.923049 1.067535
v 0.734023 10.923049 1.459534
vt 0.998047 1.001953
vt 0.001953 1.001953
vt 0.001953 0.939453
vt 0.998047 0.939453
vt 0.001953 0.876953
vt 0.998047 0.876953
vt 0.001953 0.814453
vt 0.998047 0.814453
vt 0.001953 0.751953
vt 0.998047 0.751953
vt 0.001953 0.689453
vt 0.998047 0.689453
vt 0.001953 0.626953
vt 0.998047 0.626953
vt 0.001953 0.564453
vt 0.998047 0.564453
vt 0.001953 0.501953
vt 0.998047 0.501953
vt 0.001953 0.439453
vt 0.998047 0.439453
vt 0.001953 0.376953
vt 0.998047 0.376953
vt 0.001953 0.314453
vt 0.998047 0.314453
vt 0.001953 0.251953
vt 0.998047 0.251953
vt 0.001953 0.189453
vt 0.998047 0.189453
vt 0.001953 0.126953
vt 0.998047 0.126953
vt 0.001953 0.751953
vt 0.001953 0.689453
vt 0.001953 0.064453
vt 0.998047 0.064453
vt 0.001953 0.001953
vt 0.998047 0.001953
vt 0.750000 0.490000
vt 0.841844 0.471731
vt 0.919706 0.419706
vt 0.971731 0.341844
vt 0.990000 0.250000
vt 0.971731 0.158156
vt 0.919706 0.080294
vt 0.841844 0.028269
vt 0.750000 0.010000
vt 0.658156 0.028269
vt 0.580294 0.080294
vt 0.528269 0.158156
vt 0.510000 0.250000
vt 0.528269 0.341844
vt 0.580294 0.419706
vt 0.658156 0.471731
vt 0.001953 0.314453
vt 0.001953 0.376953
vt 0.001953 0.376953
vt 0.001953 0.314453
vt 0.001953 0.439453
vt 0.001953 0.126953
vt 0.001953 0.064453
vt 0.001953 0.876953
vt 0.001953 0.814453
vt 0.001953 0.564453
vt 0.001953 0.501953
vt 0.001953 1.001953
vt 0.001953 0.939453
vt 0.001953 0.251953
vt 0.001953 0.189453
vt 0.001953 0.626953
vt 0.001953 0.001953
vt 0.001953 0.064453
vt 0.001953 0.126953
vt 0.001953 0.126953
vt 0.001953 0.064453
vt 0.001953 0.814453
vt 0.001953 0.751953
vt 0.001953 0.251953
vt 0.001953 0.689453
vt 0.001953 0.189453
vt 0.001953 0.626953
vt 0.001953 0.564453
vt 0.001953 0.501953
vt 0.001953 1.001953
vt 0.001953 0.939453
vt 0.001953 0.001953
vt 0.001953 0.439453
vt 0.001953 0.876953
vt 0.001953 0.439453
vt 0.001953 0.501953
vt 0.001953 0.501953
vt 0.001953 0.439453
vt 0.001953 0.564453
vt 0.001953 1.001953
vt 0.001953 0.939453
vt 0.001953 0.001953
vt 0.001953 0.876953
vt 0.001953 0.376953
vt 0.001953 0.814453
vt 0.001953 0.314453
vt 0.001953 0.751953
vt 0.001953 0.251953
vt 0.001953 0.689453
vt 0.001953 0.189453
vt 0.001953 0.626953
vt 0.077967 0.250000
vt 0.091062 0.184166
vt 0.091062 0.184166
vt 0.077967 0.250000
vt 0.001953 0.939453
vt 0.001953 0.876953
vt 0.001953 0.376953
vt 0.001953 0.814453
vt 0.001953 0.314453
vt 0.001953 0.751953
vt 0.001953 0.251953
vt 0.001953 0.689453
vt 0.001953 0.189453
vt 0.001953 0.626953
vt 0.001953 0.126953
vt 0.001953 0.564453
vt 0.001953 0.064453
vt 0.001953 1.001953
vt 0.001953 0.001953
vt 0.250000 0.422033
vt 0.315834 0.408938
vt 0.341844 0.471731
vt 0.250000 0.490000
vt 0.371646 0.371646
vt 0.419706 0.419706
vt 0.408938 0.315834
vt 0.471731 0.341844
vt 0.422033 0.250000
vt 0.490000 0.250000
vt 0.408938 0.184166
vt 0.471731 0.158156
vt 0.371646 0.128354
vt 0.419706 0.080294
vt 0.315834 0.091062
vt 0.341844 0.028269
vt 0.250000 0.077967
vt 0.250000 0.010000
vt 0.184166 0.091062
vt 0.158156 0.028269
vt 0.128354 0.128354
vt 0.080294 0.080294
vt 0.028269 0.158156
vt 0.010000 0.250000
vt 0.091062 0.315834
vt 0.028269 0.341844
vt 0.128354 0.371646
vt 0.080294 0.419706
vt 0.184166 0.408938
vt 0.158156 0.471731
vt 0.315834 0.408938
vt 0.250000 0.422033
vt 0.184166 0.408938
vt 0.128354 0.371646
vt 0.091062 0.315834
vt 0.128354 0.128354
vt 0.184166 0.091062
vt 0.250000 0.077967
vt 0.315834 0.091062
vt 0.371646 0.128354
vt 0.408938 0.184166
vt 0.422033 0.250000
vt 0.408938 0.315834
vt 0.371646 0.371646
vn -0.0054 -0.4437 -0.8962
vn 0.3380 -0.4437 -0.8300
vn 0.6299 -0.4437 -0.6375
vn 0.8259 -0.4437 -0.3479
vn 0.8962 -0.4437 -0.0054
vn 0.8300 -0.4437 0.3380
vn 0.6375 -0.4437 0.6299
vn 0.3479 -0.4437 0.8259
vn 0.0054 -0.4437 0.8962
vn -0.3380 -0.4437 0.8300
vn -0.6299 -0.4437 0.6375
vn -0.8259 -0.4437 0.3479
vn -0.8962 -0.4437 0.0054
vn -0.8300 -0.4437 -0.3380
vn 0.7372 -0.0000 -0.6757
vn -0.6375 -0.4437 -0.6299
vn -0.3479 -0.4437 -0.8259
vn 0.0000 -1.0000 0.0000
vn 0.0000 0.0000 1.0000
vn 0.3421 0.0000 0.9396
vn -0.9991 0.0000 -0.0435
vn 0.0435 -0.0000 -0.9991
vn 0.9064 -0.0000 0.4225
vn -0.6757 0.0000 -0.7372
vn -0.7372 -0.0000 0.6757
vn 0.9396 0.0000 -0.3421
vn -0.0435 -0.0000 0.9991
vn -0.9064 -0.0000 -0.4225
vn 0.4225 0.0000 -0.9064
vn 0.6757 -0.0000 0.7372
vn -0.9396 -0.0000 0.3421
vn -0.3421 0.0000 -0.9396
vn 0.9991 -0.0000 0.0435
vn -0.4225 0.0000 0.9064
vn -0.7050 0.5541 0.4426
vn 0.1643 -0.4099 -0.8972
vn 0.8207 0.5541 -0.1391
vn -0.8115 0.5541 -0.1856
vn -0.8207 0.5541 0.1391
vn 0.8115 0.5541 0.1856
vn -0.6787 0.5541 -0.4820
vn 0.6787 0.5541 0.4820
vn -0.4426 0.5541 -0.7050
vn 0.4426 0.5541 0.7050
vn -0.1391 0.5541 -0.8207
vn 0.1391 0.5541 0.8207
vn 0.1856 0.5541 -0.8115
vn -0.1856 0.5541 0.8115
vn 0.4820 0.5541 -0.6787
vn -0.4820 0.5541 0.6787
vn 0.7050 0.5541 -0.4426
vn -0.9400 -0.0000 0.3413
vn -0.4952 -0.4099 0.7660
vn 0.4952 -0.4099 -0.7660
vn -0.7506 -0.4099 0.5182
vn 0.7506 -0.4099 -0.5182
vn -0.8918 -0.4099 0.1915
vn 0.8918 -0.4099 -0.1915
vn -0.8972 -0.4099 -0.1643
vn 0.8972 -0.4099 0.1643
vn -0.7660 -0.4099 -0.4952
vn 0.7660 -0.4099 0.4952
vn -0.5182 -0.4099 -0.7506
vn 0.5182 -0.4099 0.7506
vn -0.1915 -0.4099 -0.8918
vn -0.1643 -0.4099 0.8972
vn 0.1915 -0.4099 0.8918
vn -0.0121 0.9777 -0.2095
vn 0.0690 0.9777 -0.1981
vn 0.1396 0.9777 -0.1567
vn 0.1889 0.9777 -0.0913
vn 0.2095 0.9777 -0.0121
vn 0.1981 0.9777 0.0690
vn 0.1567 0.9777 0.1396
vn 0.0913 0.9777 0.1889
vn 0.0121 0.9777 0.2095
vn -0.0690 0.9777 0.1981
vn -0.1396 0.9777 0.1567
vn -0.1889 0.9777 0.0913
vn -0.2095 0.9777 0.0121
vn -0.1981 0.9777 -0.0690
vn -0.1567 0.9777 -0.1396
vn -0.0913 0.9777 -0.1889
vn 0.0000 1.0000 -0.0000
vn 0.9990 0.0000 0.0444
vn -0.9990 0.0000 -0.0444
vn 0.9060 0.0000 0.4233
vn -0.9060 -0.0000 -0.4233
vn 0.6750 0.0000 0.7378
vn -0.6750 -0.0000 -0.7378
vn 0.3413 0.0000 0.9400
vn 0.0444 -0.0000 -0.9990
vn -0.3413 -0.0000 -0.9400
vn -0.0444 -0.0000 0.9990
vn 0.4233 -0.0000 -0.9060
vn -0.4233 -0.0000 0.9060
vn 0.7378 -0.0000 -0.6750
vn -0.7378 0.0000 0.6750
vn 0.9400 0.0000 -0.3413
usemtl Material.001
s off
f 1/1/1 2/2/1 4/3/1 3/4/1
f 3/4/2 4/3/2 6/5/2 5/6/2
f 5/6/3 6/5/3 8/7/3 7/8/3
f 7/8/4 8/7/4 10/9/4 9/10/4
f 9/10/5 10/9/5 12/11/5 11/12/5
f 11/12/6 12/11/6 14/13/6 13/14/6
f 13/14/7 14/13/7 16/15/7 15/16/7
f 15/16/8 16/15/8 18/17/8 17/18/8
f 17/18/9 18/17/9 20/19/9 19/20/9
f 19/20/10 20/19/10 22/21/10 21/22/10
f 21/22/11 22/21/11 24/23/11 23/24/11
f 23/24/12 24/23/12 26/25/12 25/26/12
f 25/26/13 26/25/13 28/27/13 27/28/13
f 27/28/14 28/27/14 30/29/14 29/30/14
f 12/11/15 10/9/15 37/31/15 38/32/15
f 29/30/16 30/29/16 32/33/16 31/34/16
f 31/34/17 32/33/17 2/35/17 1/36/17
f 1/37/18 3/38/18 5/39/18 7/40/18 9/41/18 11/42/18 13/43/18 15/44/18 17/45/18 19/46/18 21/47/18 23/48/18 25/49/18 27/50/18 29/51/18 31/52/18
f 44/53/19 43/54/19 59/55/19 60/56/19
f 22/21/20 20/19/20 42/57/20 43/54/20
f 32/33/21 30/29/21 47/58/21 48/59/21
f 8/7/22 6/5/22 35/60/22 36/61/22
f 18/17/23 16/15/23 40/62/23 41/63/23
f 4/3/24 2/2/24 34/64/24 33/65/24
f 28/27/25 26/25/25 45/66/25 46/67/25
f 14/13/26 12/11/26 38/32/26 39/68/26
f 24/23/27 22/21/27 43/54/27 44/53/27
f 2/35/28 32/33/28 48/59/28 34/69/28
f 10/9/29 8/7/29 36/61/29 37/31/29
f 20/19/30 18/17/30 41/63/30 42/57/30
f 30/29/31 28/27/31 46/67/31 47/58/31
f 6/5/32 4/3/32 33/65/32 35/60/32
f 16/15/33 14/13/33 39/68/33 40/62/33
f 26/25/34 24/23/34 44/53/34 45/66/34
f 64/70/35 63/71/35 79/72/35 80/73/35
f 37/31/19 36/61/19 52/74/19 53/75/19
f 45/66/19 44/53/19 60/56/19 61/76/19
f 38/32/19 37/31/19 53/75/19 54/77/19
f 46/67/19 45/66/19 61/76/19 62/78/19
f 39/68/19 38/32/19 54/77/19 55/79/19
f 47/58/19 46/67/19 62/78/19 63/71/19
f 40/62/19 39/68/19 55/79/19 56/80/19
f 48/59/19 47/58/19 63/71/19 64/70/19
f 41/63/19 40/62/19 56/80/19 57/81/19
f 33/65/19 34/64/19 50/82/19 49/83/19
f 34/69/19 48/59/19 64/70/19 50/84/19
f 42/57/19 41/63/19 57/81/19 58/85/19
f 35/60/19 33/65/19 49/83/19 51/86/19
f 43/54/19 42/57/19 58/85/19 59/55/19
f 36/61/19 35/60/19 51/86/19 52/74/19
f 74/87/36 73/88/36 105/89/36 106/90/36
f 57/81/37 56/80/37 72/91/37 73/88/37
f 49/83/38 50/82/38 66/92/38 65/93/38
f 50/84/39 64/70/39 80/73/39 66/94/39
f 58/85/40 57/81/40 73/88/40 74/87/40
f 51/86/41 49/83/41 65/93/41 67/95/41
f 59/55/42 58/85/42 74/87/42 75/96/42
f 52/74/43 51/86/43 67/95/43 68/97/43
f 60/56/44 59/55/44 75/96/44 76/98/44
f 53/75/45 52/74/45 68/97/45 69/99/45
f 61/76/46 60/56/46 76/98/46 77/100/46
f 54/77/47 53/75/47 69/99/47 70/101/47
f 62/78/48 61/76/48 77/100/48 78/102/48
f 55/79/49 54/77/49 70/101/49 71/103/49
f 63/71/50 62/78/50 78/102/50 79/72/50
f 56/80/51 55/79/51 71/103/51 72/91/51
f 93/104/52 92/105/52 124/106/52 125/107/52
f 67/95/53 65/93/53 97/108/53 99/109/53
f 75/96/54 74/87/54 106/90/54 107/110/54
f 68/97/55 67/95/55 99/109/55 100/111/55
f 76/98/56 75/96/56 107/110/56 108/112/56
f 69/99/57 68/97/57 100/111/57 101/113/57
f 77/100/58 76/98/58 108/112/58 109/114/58
f 70/101/59 69/99/59 101/113/59 102/115/59
f 78/102/60 77/100/60 109/114/60 110/116/60
f 71/103/61 70/101/61 102/115/61 103/117/61
f 79/72/62 78/102/62 110/116/62 111/118/62
f 72/91/63 71/103/63 103/117/63 104/119/63
f 80/73/64 79/72/64 111/118/64 112/120/64
f 73/88/65 72/91/65 104/119/65 105/89/65
f 65/93/66 66/92/66 98/121/66 97/108/66
f 66/94/67 80/73/67 112/120/67 98/122/67
f 82/123/68 81/124/68 97/125/68 98/126/68
f 81/124/69 83/127/69 99/128/69 97/125/69
f 83/127/70 84/129/70 100/130/70 99/128/70
f 84/129/71 85/131/71 101/132/71 100/130/71
f 85/131/72 86/133/72 102/134/72 101/132/72
f 86/133/73 87/135/73 103/136/73 102/134/73
f 87/135/74 88/137/74 104/138/74 103/136/74
f 88/137/75 89/139/75 105/140/75 104/138/75
f 89/139/76 90/141/76 106/142/76 105/140/76
f 90/141/77 91/143/77 107/144/77 106/142/77
f 91/143/78 92/105/78 108/145/78 107/144/78
f 92/105/79 93/104/79 109/146/79 108/145/79
f 93/104/80 94/147/80 110/148/80 109/146/80
f 94/147/81 95/149/81 111/150/81 110/148/81
f 95/149/82 96/151/82 112/152/82 111/150/82
f 96/151/83 82/123/83 98/126/83 112/152/83
f 113/153/84 114/154/84 128/155/84 127/156/84 126/157/84 125/107/84 124/106/84 123/158/84 122/159/84 121/160/84 120/161/84 119/162/84 118/163/84 117/164/84 116/165/84 115/166/84
f 86/133/85 85/131/85 117/164/85 118/163/85
f 94/147/86 93/104/86 125/107/86 126/157/86
f 87/135/87 86/133/87 118/163/87 119/162/87
f 95/149/88 94/147/88 126/157/88 127/156/88
f 88/137/89 87/135/89 119/162/89 120/161/89
f 96/151/90 95/149/90 127/156/90 128/155/90
f 89/139/91 88/137/91 120/161/91 121/160/91
f 81/124/92 82/123/92 114/154/92 113/153/92
f 82/123/93 96/151/93 128/155/93 114/154/93
f 90/141/94 89/139/94 121/160/94 122/159/94
f 83/127/95 81/124/95 113/153/95 115/166/95
f 91/143/96 90/141/96 122/159/96 123/158/96
f 84/129/97 83/127/97 115/166/97 116/165/97
f 92/105/98 91/143/98 123/158/98 124/106/98
f 85/131/99 84/129/99 116/165/99 117/164/99
